<svg width="20" height="16" viewBox="0 0 20 16" fill="none" xmlns="http://www.w3.org/2000/svg">
<path d="M16.942 1.55603C15.6304 0.942333 14.2429 0.50616 12.816 0.259033C12.638 0.580033 12.431 1.01303 12.287 1.35603C10.7714 1.12504 9.22959 1.12504 7.71401 1.35603C7.55508 0.981219 7.3765 0.615044 7.17901 0.259033C5.75093 0.506567 4.36231 0.943767 3.05001 1.55903C0.439009 5.50503 -0.268991 9.35303 0.0850088 13.146C1.60917 14.2969 3.32161 15.1742 5.14601 15.739C5.55592 15.1749 5.91849 14.5779 6.23001 13.954C5.63749 13.7282 5.06623 13.4501 4.52301 13.123C4.66601 13.017 4.80601 12.906 4.94101 12.792C8.23201 14.331 11.807 14.331 15.059 12.792C15.196 12.906 15.336 13.017 15.477 13.123C14.936 13.449 14.363 13.729 13.767 13.955C14.078 14.5792 14.4406 15.1763 14.851 15.74C16.6769 15.1756 18.3905 14.2975 19.915 13.145C20.33 8.74903 19.206 4.93603 16.942 1.55603ZM6.67801 10.813C5.69001 10.813 4.88001 9.89103 4.88001 8.76803C4.88001 7.64503 5.67301 6.72103 6.67801 6.72103C7.68301 6.72103 8.49301 7.64303 8.47601 8.76803C8.47701 9.89103 7.68301 10.813 6.67801 10.813ZM13.322 10.813C12.334 10.813 11.524 9.89103 11.524 8.76803C11.524 7.64503 12.317 6.72103 13.322 6.72103C14.327 6.72103 15.137 7.64303 15.12 8.76803C15.12 9.89103 14.327 10.813 13.322 10.813Z" fill="#9D9D9D"/>
</svg>
