<svg width="49" height="36" viewBox="0 0 49 36" fill="none" xmlns="http://www.w3.org/2000/svg">
<g filter="url(#filter0_b_0_124)">
<rect width="49" height="36" rx="15" fill="white" fill-opacity="0.8"/>
</g>
<path d="M21.1194 18.5294L21.128 18.5387L15 24.6667L8.87202 18.5387L8.88069 18.5294C7.40462 16.8085 7.50453 14.2408 9.10986 12.6398C10.7152 11.0388 13.2832 10.9459 15 12.4267C16.7168 10.9459 19.2849 11.0388 20.8902 12.6398C22.4955 14.2408 22.5954 16.8085 21.1194 18.5294Z" fill="#EB5853"/>
<path d="M29.01 21.516H32.762V23H26.588L26.56 21.922L29.654 18.66C30.1113 18.184 30.452 17.7687 30.676 17.414C30.9 17.05 31.012 16.6767 31.012 16.294C31.012 15.8647 30.872 15.51 30.592 15.23C30.3213 14.9407 29.9713 14.796 29.542 14.796C28.7487 14.796 28.1373 15.174 27.708 15.93L26.546 15.104C27.19 13.8907 28.226 13.284 29.654 13.284C30.4847 13.284 31.194 13.5453 31.782 14.068C32.37 14.5813 32.664 15.2627 32.664 16.112C32.664 16.6627 32.5427 17.19 32.3 17.694C32.0667 18.198 31.656 18.7533 31.068 19.36L29.01 21.502V21.516ZM37.9078 23V21.376H33.7078V20.27L38.1738 13.382H39.5318V19.934H40.8618V21.376H39.5318V23H37.9078ZM35.5978 19.976H37.9638V16.126L35.5978 19.976Z" fill="black"/>
<defs>
<filter id="filter0_b_0_124" x="-50" y="-50" width="149" height="136" filterUnits="userSpaceOnUse" color-interpolation-filters="sRGB">
<feFlood flood-opacity="0" result="BackgroundImageFix"/>
<feGaussianBlur in="BackgroundImage" stdDeviation="25"/>
<feComposite in2="SourceAlpha" operator="in" result="effect1_backgroundBlur_0_124"/>
<feBlend mode="normal" in="SourceGraphic" in2="effect1_backgroundBlur_0_124" result="shape"/>
</filter>
</defs>
</svg>
