<svg width="27" height="17" viewBox="0 0 27 17" fill="none" xmlns="http://www.w3.org/2000/svg">
<path d="M14.2829 8.15461L14.2916 8.16394L8.16357 14.2919L2.03557 8.16394L2.04423 8.15461C0.568162 6.43375 0.668076 3.866 2.2734 2.26504C3.87873 0.664089 6.44674 0.571178 8.16357 2.05194C9.88039 0.571178 12.4484 0.664089 14.0537 2.26504C15.6591 3.866 15.759 6.43375 14.2829 8.15461V8.15461Z" stroke="#EB5853"/>
<path d="M22.424 12.112C21.3133 12.112 20.4173 11.678 19.736 10.81C19.064 9.93267 18.728 8.72867 18.728 7.198C18.728 5.72333 19.0593 4.538 19.722 3.642C20.3847 2.73667 21.2853 2.284 22.424 2.284C23.5347 2.284 24.426 2.718 25.098 3.586C25.7793 4.454 26.12 5.658 26.12 7.198C26.12 8.67267 25.7887 9.86267 25.126 10.768C24.4727 11.664 23.572 12.112 22.424 12.112ZM22.424 10.6C23.068 10.6 23.5673 10.3013 23.922 9.704C24.286 9.10667 24.468 8.27133 24.468 7.198C24.468 6.12467 24.286 5.28933 23.922 4.692C23.558 4.08533 23.0587 3.782 22.424 3.782C21.7893 3.782 21.29 4.08533 20.926 4.692C20.562 5.28933 20.38 6.12467 20.38 7.198C20.38 8.25267 20.562 9.08333 20.926 9.69C21.2993 10.2967 21.7987 10.6 22.424 10.6Z" fill="black"/>
</svg>
