<svg width="20" height="20" viewBox="0 0 20 20" fill="none" xmlns="http://www.w3.org/2000/svg">
<path d="M10 6.8758C8.27971 6.8758 6.8758 8.2797 6.8758 10C6.8758 11.7203 8.27971 13.1242 10 13.1242C11.7203 13.1242 13.1242 11.7203 13.1242 10C13.1242 8.2797 11.7203 6.8758 10 6.8758ZM19.3703 10C19.3703 8.70626 19.382 7.42423 19.3094 6.13283C19.2367 4.63283 18.8945 3.30158 17.7977 2.2047C16.6985 1.10548 15.3695 0.765639 13.8695 0.692982C12.5758 0.620326 11.2938 0.632045 10.0024 0.632045C8.70861 0.632045 7.42658 0.620326 6.13517 0.692982C4.63518 0.765639 3.30393 1.10783 2.20705 2.2047C1.10783 3.30392 0.767988 4.63283 0.695332 6.13283C0.622676 7.42658 0.634395 8.70861 0.634395 10C0.634395 11.2914 0.622676 12.5758 0.695332 13.8672C0.767988 15.3672 1.11018 16.6985 2.20705 17.7953C3.30627 18.8945 4.63518 19.2344 6.13517 19.307C7.42892 19.3797 8.71095 19.368 10.0024 19.368C11.2961 19.368 12.5781 19.3797 13.8695 19.307C15.3695 19.2344 16.7008 18.8922 17.7977 17.7953C18.8969 16.6961 19.2367 15.3672 19.3094 13.8672C19.3844 12.5758 19.3703 11.2938 19.3703 10ZM10 14.807C7.33986 14.807 5.19299 12.6602 5.19299 10C5.19299 7.33986 7.33986 5.19298 10 5.19298C12.6602 5.19298 14.807 7.33986 14.807 10C14.807 12.6602 12.6602 14.807 10 14.807ZM15.0039 6.11876C14.3828 6.11876 13.8813 5.6172 13.8813 4.99611C13.8813 4.37501 14.3828 3.87345 15.0039 3.87345C15.625 3.87345 16.1266 4.37501 16.1266 4.99611C16.1268 5.14359 16.0979 5.28966 16.0415 5.42595C15.9851 5.56224 15.9025 5.68607 15.7982 5.79036C15.6939 5.89464 15.5701 5.97733 15.4338 6.03368C15.2975 6.09004 15.1514 6.11895 15.0039 6.11876Z" fill="#9D9D9D"/>
</svg>
