<svg width="18" height="18" viewBox="0 0 18 18" fill="none" xmlns="http://www.w3.org/2000/svg">
<path d="M17.2418 13.0248C17.081 12.8268 16.811 12.7536 16.5734 12.8388C15.9074 13.0776 15.185 13.2 14.4242 13.2C10.7846 13.2 7.8242 10.2384 7.8242 6.6C7.8242 4.41 8.9054 2.3712 10.7162 1.1448C10.9214 1.0056 11.0198 0.7548 10.9646 0.5136C10.9094 0.2724 10.7114 0.09 10.4654 0.054C10.1846 0.0132 9.905 0 9.6242 0C4.661 0 0.624207 4.0368 0.624207 9C0.624207 13.9632 4.661 18 9.6242 18C12.7742 18 15.6398 16.3992 17.2874 13.7184C17.4206 13.5012 17.4014 13.224 17.2418 13.0248Z" fill="black"/>
</svg>
