<svg width="24" height="20" viewBox="0 0 24 20" fill="none" xmlns="http://www.w3.org/2000/svg">
<path d="M23.643 2.93708C22.808 3.30708 21.911 3.55708 20.968 3.67008C21.941 3.08787 22.669 2.17154 23.016 1.09208C22.1019 1.63507 21.1014 2.01727 20.058 2.22208C19.3564 1.47294 18.4271 0.976403 17.4143 0.809551C16.4016 0.642699 15.3621 0.814868 14.4572 1.29933C13.5524 1.78379 12.8328 2.55344 12.4102 3.48878C11.9875 4.42412 11.8855 5.47283 12.12 6.47208C10.2677 6.37907 8.45564 5.89763 6.80144 5.05898C5.14723 4.22034 3.68785 3.04324 2.51801 1.60408C2.11801 2.29408 1.88801 3.09408 1.88801 3.94608C1.88757 4.71307 2.07644 5.46832 2.43789 6.14481C2.79934 6.8213 3.32217 7.39812 3.96001 7.82408C3.22029 7.80054 2.49688 7.60066 1.85001 7.24108V7.30108C1.84994 8.37682 2.22204 9.41945 2.90319 10.2521C3.58434 11.0847 4.53258 11.656 5.58701 11.8691C4.9008 12.0548 4.18135 12.0821 3.48301 11.9491C3.78051 12.8747 4.36001 13.6841 5.14038 14.264C5.92075 14.8439 6.86293 15.1653 7.83501 15.1831C6.18484 16.4785 4.1469 17.1812 2.04901 17.1781C1.67739 17.1782 1.30609 17.1565 0.937012 17.1131C3.06649 18.4823 5.54535 19.2089 8.07701 19.2061C16.647 19.2061 21.332 12.1081 21.332 5.95208C21.332 5.75208 21.327 5.55008 21.318 5.35008C22.2293 4.69105 23.0159 3.87497 23.641 2.94008L23.643 2.93708Z" fill="#9D9D9D"/>
</svg>
