<svg width="24" height="18" viewBox="0 0 24 18" fill="none" xmlns="http://www.w3.org/2000/svg">
<path d="M12.0765 0.998535H12.21C13.443 1.00304 19.6905 1.04804 21.375 1.50104C21.8842 1.63929 22.3483 1.90877 22.7207 2.28255C23.0932 2.65633 23.361 3.12131 23.4975 3.63104C23.649 4.20104 23.7555 4.95554 23.8275 5.73404L23.8425 5.89004L23.8755 6.28004L23.8875 6.43604C23.985 7.80704 23.997 9.09104 23.9985 9.37154V9.48404C23.997 9.77504 23.9835 11.146 23.8755 12.574L23.8635 12.7315L23.85 12.8875C23.775 13.7455 23.664 14.5975 23.4975 15.2245C23.3615 15.7345 23.0938 16.1997 22.7212 16.5735C22.3487 16.9474 21.8844 17.2167 21.375 17.3545C19.635 17.8225 13.0215 17.8555 12.105 17.857H11.892C11.4285 17.857 9.5115 17.848 7.5015 17.779L7.2465 17.77L7.116 17.764L6.8595 17.7535L6.603 17.743C4.938 17.6695 3.3525 17.551 2.622 17.353C2.11273 17.2153 1.6486 16.9462 1.27609 16.5726C0.903575 16.1991 0.63577 15.7342 0.4995 15.2245C0.333 14.599 0.222 13.7455 0.147 12.8875L0.135 12.73L0.123 12.574C0.0489714 11.5576 0.0079498 10.5391 0 9.52004L0 9.33554C0.003 9.01304 0.015 7.89854 0.096 6.66854L0.1065 6.51404L0.111 6.43604L0.123 6.28004L0.156 5.89004L0.171 5.73404C0.243 4.95554 0.3495 4.19954 0.501 3.63104C0.63704 3.12111 0.904743 2.6559 1.27727 2.28206C1.6498 1.90822 2.11405 1.63887 2.6235 1.50104C3.354 1.30604 4.9395 1.18604 6.6045 1.11104L6.8595 1.10054L7.1175 1.09154L7.2465 1.08704L7.503 1.07654C8.93056 1.0306 10.3587 1.00509 11.787 1.00004H12.0765V0.998535ZM9.6 5.81354V13.0405L15.8355 9.42854L9.6 5.81354Z" fill="#9D9D9D"/>
</svg>
